1.9Hzlow3min_grf.mot
version=1
nRows=27
nColumns 19
inDegrees=yes
endheader
time	1_ground_force_vx	1_ground_force_vy	1_ground_force_vz	1_ground_force_px	1_ground_force_py	1_ground_force_pz	1_ground_torque_x	1_ground_torque_y	1_ground_torque_z	2_ground_force_vx	2_ground_force_vy	2_ground_force_vz	2_ground_force_px	2_ground_force_py	2_ground_force_pz	2_ground_torque_x	2_ground_torque_y	2_ground_torque_z
            1.253500	            0.645505	            2.156234	            1.658496	           -0.233013	            0.005581	           -0.255695	           -0.391116	           -0.008481	           -0.084565	            1.123739	            0.009416	           -1.502178	           -0.232311	            0.006130	           -0.833667	           -0.187903	           -0.000275	           -0.113021
            1.254000	            0.507764	            2.697201	            1.615300	           -0.233013	            0.005581	           -0.255695	           -0.408334	           -0.045442	           -0.109362	            0.979908	            0.929315	           -1.404976	           -0.232311	            0.006130	           -0.833667	           -0.131556	            0.009180	           -0.056461
            1.254500	            0.691624	            2.516185	            1.797495	           -0.233013	            0.005581	           -0.255695	           -0.397248	           -0.045349	           -0.101564	            0.698123	            1.112616	           -1.451128	           -0.232311	            0.006130	           -0.833667	           -0.244395	            0.028149	           -0.188297
            1.255000	            0.416356	            1.795659	            1.657519	           -0.233013	            0.005581	           -0.255695	           -0.391050	            0.000899	           -0.150680	            1.121225	            0.744837	           -1.171053	           -0.232311	            0.006130	           -0.833667	           -0.169024	           -0.028498	           -0.131981
            1.255500	            0.507276	            2.878253	            1.432649	           -0.233013	            0.005581	           -0.255695	           -0.419231	            0.046661	           -0.033754	            1.262213	            0.563038	           -1.687979	           -0.232311	            0.006130	           -0.833667	           -0.206646	           -0.009863	           -0.094197
            1.256000	            0.644936	            2.157217	            1.429216	           -0.233013	            0.005581	           -0.255695	           -0.437574	            0.056044	           -0.046576	            0.981819	            0.377540	           -1.594660	           -0.232311	            0.006130	           -0.833667	           -0.169066	           -0.018978	           -0.150797
            1.256500	            0.461759	            2.337054	            1.522156	           -0.233013	            0.005581	           -0.255695	           -0.404117	            0.028320	           -0.073402	            0.838550	            1.114128	           -1.732756	           -0.232311	            0.006130	           -0.833667	           -0.131368	           -0.047402	           -0.094364
            1.257000	            0.553574	            2.877476	            1.615959	           -0.233013	            0.005581	           -0.255695	           -0.427121	           -0.064073	           -0.069851	            0.937004	           -0.175409	           -1.502755	           -0.232311	            0.006130	           -0.833667	           -0.131566	            0.018431	            0.000123
            1.257500	            0.554212	            1.254495	            1.746570	           -0.233013	            0.005581	           -0.255695	           -0.507119	           -0.100896	           -0.107348	            0.795105	            0.192547	           -1.548309	           -0.232311	            0.006130	           -0.833667	           -0.150359	            0.018430	           -0.018719
            1.258000	            0.828958	            2.336339	            1.704669	           -0.233013	            0.005581	           -0.255695	           -0.412023	           -0.063699	           -0.114533	            0.842578	            0.008903	           -1.642842	           -0.232311	            0.006130	           -0.833667	           -0.187844	           -0.009929	           -0.056504
            1.258500	            0.737224	            1.975986	            1.657495	           -0.233013	            0.005581	           -0.255695	           -0.428781	            0.065904	           -0.174227	            0.933599	            0.746002	           -1.687182	           -0.232311	            0.006130	           -0.833667	           -0.187709	           -0.038556	            0.018795
            1.259000	            0.554209	            2.515962	            1.843693	           -0.233013	            0.005581	           -0.255695	           -0.399192	            0.065429	           -0.088150	            1.028107	            0.561020	           -1.359382	           -0.232311	            0.006130	           -0.833667	           -0.225315	           -0.020055	            0.094279
            1.259500	            0.554500	            3.416503	            2.030981	           -0.233013	            0.005581	           -0.255695	           -0.445463	            0.065991	           -0.219652	            1.030019	            0.009245	           -1.549066	           -0.232311	            0.006130	           -0.833667	           -0.131573	            0.009314	           -0.094161
            1.260000	            0.737743	            2.876135	            1.936495	           -0.233013	            0.005581	           -0.255695	           -0.497265	            0.047172	           -0.117775	            0.843949	           -0.359729	           -1.550300	           -0.232311	            0.006130	           -0.833667	           -0.112752	           -0.009255	           -0.169638
            1.260500	            0.691510	            2.516381	            1.751640	           -0.233013	            0.005581	           -0.255695	           -0.338880	           -0.063988	           -0.064192	            1.030622	           -0.174401	           -1.690507	           -0.232311	            0.006130	           -0.833667	           -0.150375	            0.009381	           -0.131854
            1.261000	            0.598994	            2.698005	            1.431649	           -0.233013	            0.005581	           -0.255695	           -0.456967	           -0.008201	           -0.161566	            1.027984	            0.562024	           -1.640951	           -0.232311	            0.006130	           -0.833667	           -0.150545	            0.056644	           -0.131685
            1.261500	            0.324033	            3.418622	            1.527135	           -0.233013	            0.005581	           -0.255695	           -0.423637	           -0.017883	           -0.098252	            1.027361	            0.745838	           -1.546438	           -0.232311	            0.006130	           -0.833667	           -0.225483	            0.008840	           -0.056421
            1.262000	            0.553038	            2.698193	            1.385907	           -0.233013	            0.005581	           -0.255695	           -0.473803	            0.074964	           -0.163123	            1.031307	           -0.358717	           -1.644236	           -0.232311	            0.006130	           -0.833667	           -0.131574	            0.018498	           -0.018727
            1.262500	            0.599695	            1.975960	            1.657836	           -0.233013	            0.005581	           -0.255695	           -0.466155	            0.074754	           -0.104768	            1.074211	            0.746007	           -1.546457	           -0.232311	            0.006130	           -0.833667	           -0.150155	           -0.038286	           -0.018921
            1.263000	            0.508267	            3.056750	            1.846125	           -0.233013	            0.005581	           -0.255695	           -0.380677	            0.056007	           -0.052614	            1.074231	            0.745840	           -1.499529	           -0.232311	            0.006130	           -0.833667	           -0.188016	            0.046518	            0.019099
            1.263500	            0.324994	            2.515917	            1.844262	           -0.233013	            0.005581	           -0.255695	           -0.380437	            0.028353	           -0.098129	            1.028710	            0.377374	           -1.500824	           -0.232311	            0.006130	           -0.833667	           -0.131658	            0.028354	           -0.131794
            1.264000	            0.507815	            1.796070	            1.565579	           -0.233013	            0.005581	           -0.255695	           -0.424480	           -0.036365	           -0.071655	            1.166478	            1.115479	           -1.779824	           -0.232311	            0.006130	           -0.833667	           -0.150391	            0.009515	           -0.169554
            1.264500	            0.690713	            2.517758	            1.430648	           -0.233013	            0.005581	           -0.255695	           -0.419145	           -0.073097	           -0.101628	            1.030060	            0.008910	           -1.455210	           -0.232311	            0.006130	           -0.833667	           -0.131404	           -0.019582	            0.056539
            1.265000	            0.599354	            1.976550	            1.520269	           -0.233013	            0.005581	           -0.255695	           -0.272645	           -0.017486	           -0.143240	            0.841914	            0.193051	           -1.642185	           -0.232311	            0.006130	           -0.833667	           -0.225382	           -0.010334	            0.018912
            1.265500	            0.737206	            2.696852	            1.706443	           -0.233013	            0.005581	           -0.255695	           -0.449737	            0.056255	           -0.080251	            0.934928	            0.377705	           -1.688496	           -0.232311	            0.006130	           -0.833667	           -0.131497	           -0.000475	            0.000056
            1.266000	            0.370480	            1.975915	            1.658405	           -0.233013	            0.005581	           -0.255695	           -0.522448	            0.074558	           -0.095605	            1.076122	            0.194232	           -1.736141	           -0.232311	            0.006130	           -0.833667	           -0.206834	            0.046719	           -0.056294
            1.266500	            0.599822	            3.777830	            1.848990	           -0.233013	            0.005581	           -0.255695	           -0.362547	            0.065618	           -0.123927	            1.123013	            0.194066	           -1.642305	           -0.232311	            0.006130	           -0.833667	           -0.150231	           -0.019314	           -0.037704
